<?xml version="1.0" standalone="no"?>
<!DOCTYPE svg PUBLIC "-//W3C//DTD SVG 20010904//EN"
 "http://www.w3.org/TR/2001/REC-SVG-20010904/DTD/svg10.dtd">
<svg version="1.0" xmlns="http://www.w3.org/2000/svg"
 width="500.000000pt" height="500.000000pt" viewBox="0 0 500.000000 500.000000"
 preserveAspectRatio="xMidYMid meet">

<g transform="translate(0.000000,500.000000) scale(0.100000,-0.100000)"
fill="#000000" stroke="none">
<path d="M2060 3229 c-206 -67 -379 -125 -383 -129 -7 -6 -12 -548 -8 -832 l1
-66 383 -126 384 -126 381 125 c210 69 384 125 387 125 3 0 4 203 3 452 l-3
452 -385 123 c-212 68 -385 123 -385 123 0 -1 -169 -55 -375 -121z m744 -16
l368 -118 -358 -117 c-198 -65 -366 -118 -374 -118 -8 0 -177 53 -374 118
l-359 117 359 117 c197 64 361 117 364 117 3 1 171 -51 374 -116z m-736 -258
l362 -119 0 -428 c0 -235 -4 -428 -8 -428 -4 0 -172 54 -372 119 l-365 119 -3
432 c-2 344 0 431 10 428 7 -3 176 -58 376 -123z m1122 -308 l0 -433 -370
-120 -370 -121 0 433 0 433 363 120 c199 66 365 120 370 120 4 1 7 -194 7
-432z"/>
<path d="M2176 3182 c-132 -43 -241 -82 -242 -87 -2 -6 111 -47 250 -93 l253
-82 252 82 c139 46 252 88 252 93 -1 11 -474 165 -506 165 -11 -1 -128 -36
-259 -78z m500 -12 c120 -39 220 -72 222 -74 2 -2 -100 -39 -227 -81 l-231
-76 -237 78 -237 77 219 72 c121 40 232 72 247 73 14 1 124 -31 244 -69z"/>
<path d="M1740 2631 c0 -275 3 -361 13 -369 11 -9 595 -202 611 -202 3 0 5
165 4 368 l-3 367 -295 97 c-162 54 -303 98 -312 98 -17 0 -18 -24 -18 -359z
m321 243 l289 -95 0 -348 0 -348 -295 96 -295 96 0 348 c0 191 3 347 6 347 3
0 135 -43 295 -96z"/>
<path d="M2810 2892 l-295 -98 -3 -368 c-2 -311 0 -367 12 -363 7 3 147 49
310 102 l296 96 0 364 c0 286 -3 365 -12 364 -7 0 -146 -44 -308 -97z m300
-270 l0 -348 -282 -92 c-156 -51 -286 -93 -291 -92 -4 0 -6 156 -5 347 l3 346
265 87 c146 47 272 89 280 92 8 4 18 7 23 7 4 1 7 -156 7 -347z"/>
</g>
</svg>
